ModelForces
version=1
nRows=4
nColumns=155
inDegrees=no

This file contains the forces exerted on a model during a simulation.

A force is a generalized force, meaning that it can be either a force (N) or a torque (Nm).

Units are S.I. units (second, meters, Newtons, ...)
Angles are in degrees.

endheader
time	glut_med1_r	glut_med2_r	glut_med3_r	glut_min1_r	glut_min2_r	glut_min3_r	semimem_r	semiten_r	bifemlh_r	bifemsh_r	sar_r	add_long_r	add_brev_r	add_mag1_r	add_mag2_r	add_mag3_r	tfl_r	pect_r	grac_r	glut_max1_r	glut_max2_r	glut_max3_r	iliacus_r	psoas_r	quad_fem_r	gem_r	peri_r	rect_fem_r	vas_med_r	vas_int_r	vas_lat_r	med_gas_r	lat_gas_r	soleus_r	tib_post_r	flex_dig_r	flex_hal_r	tib_ant_r	per_brev_r	per_long_r	per_tert_r	ext_dig_r	ext_hal_r	glut_med1_l	glut_med2_l	glut_med3_l	glut_min1_l	glut_min2_l	glut_min3_l	semimem_l	semiten_l	bifemlh_l	bifemsh_l	sar_l	add_long_l	add_brev_l	add_mag1_l	add_mag2_l	add_mag3_l	tfl_l	pect_l	grac_l	glut_max1_l	glut_max2_l	glut_max3_l	iliacus_l	psoas_l	quad_fem_l	gem_l	peri_l	rect_fem_l	vas_med_l	vas_int_l	vas_lat_l	med_gas_l	lat_gas_l	soleus_l	tib_post_l	flex_dig_l	flex_hal_l	tib_ant_l	per_brev_l	per_long_l	per_tert_l	ext_dig_l	ext_hal_l	ercspn_r	ercspn_l	intobl_r	intobl_l	extobl_r	extobl_l	femur_lat_meniscii_r.femur_lat_r.force.X	femur_lat_meniscii_r.femur_lat_r.force.Y	femur_lat_meniscii_r.femur_lat_r.force.Z	femur_lat_meniscii_r.femur_lat_r.torque.X	femur_lat_meniscii_r.femur_lat_r.torque.Y	femur_lat_meniscii_r.femur_lat_r.torque.Z	femur_lat_meniscii_r.meniscus_lat_r.force.X	femur_lat_meniscii_r.meniscus_lat_r.force.Y	femur_lat_meniscii_r.meniscus_lat_r.force.Z	femur_lat_meniscii_r.meniscus_lat_r.torque.X	femur_lat_meniscii_r.meniscus_lat_r.torque.Y	femur_lat_meniscii_r.meniscus_lat_r.torque.Z	femur_med_meniscii_r.femur_med_r.force.X	femur_med_meniscii_r.femur_med_r.force.Y	femur_med_meniscii_r.femur_med_r.force.Z	femur_med_meniscii_r.femur_med_r.torque.X	femur_med_meniscii_r.femur_med_r.torque.Y	femur_med_meniscii_r.femur_med_r.torque.Z	femur_med_meniscii_r.meniscus_med_r.force.X	femur_med_meniscii_r.meniscus_med_r.force.Y	femur_med_meniscii_r.meniscus_med_r.force.Z	femur_med_meniscii_r.meniscus_med_r.torque.X	femur_med_meniscii_r.meniscus_med_r.torque.Y	femur_med_meniscii_r.meniscus_med_r.torque.Z	femur_med_tibia_r.tibia_upper_r.force.X	femur_med_tibia_r.tibia_upper_r.force.Y	femur_med_tibia_r.tibia_upper_r.force.Z	femur_med_tibia_r.tibia_upper_r.torque.X	femur_med_tibia_r.tibia_upper_r.torque.Y	femur_med_tibia_r.tibia_upper_r.torque.Z	femur_med_tibia_r.femur_med_r.force.X	femur_med_tibia_r.femur_med_r.force.Y	femur_med_tibia_r.femur_med_r.force.Z	femur_med_tibia_r.femur_med_r.torque.X	femur_med_tibia_r.femur_med_r.torque.Y	femur_med_tibia_r.femur_med_r.torque.Z	femur_lat_tibia_r.tibia_upper_r.force.X	femur_lat_tibia_r.tibia_upper_r.force.Y	femur_lat_tibia_r.tibia_upper_r.force.Z	femur_lat_tibia_r.tibia_upper_r.torque.X	femur_lat_tibia_r.tibia_upper_r.torque.Y	femur_lat_tibia_r.tibia_upper_r.torque.Z	femur_lat_tibia_r.femur_lat_r.force.X	femur_lat_tibia_r.femur_lat_r.force.Y	femur_lat_tibia_r.femur_lat_r.force.Z	femur_lat_tibia_r.femur_lat_r.torque.X	femur_lat_tibia_r.femur_lat_r.torque.Y	femur_lat_tibia_r.femur_lat_r.torque.Z	aACL_R	pACL_R	aPCL_R	pPCL_R	aMCL_R	mMCL_R	pMCL_R	aLCL_R	mLCL_R	pLCL_R	aPCL_L	pPCL_L	aMCL_L	aLCL_L
      0.06809611	      0.00000000	     14.22082302	     13.45387788	      6.96622761	      7.90863763	      4.37045387	      0.00000000	    241.17163509	    292.64462204	    429.22122232	    138.12384291	     15.45370145	     10.75533645	      0.00000000	      0.00000000	     11.10041175	      8.98046396	      0.00000000	    122.65044063	      8.10685395	     14.91382176	     11.47148009	     40.81218445	     33.62459944	      0.00000000	      5.72440938	      0.00000000	     47.63432710	      0.00000000	      0.00000000	      0.00000000	     57.49357820	     55.05558255	      0.00000000	     35.71352349	      6.90306370	      5.52592717	      0.00000000	      8.88591138	     28.57438028	      7.44680410	     11.56113327	      3.49317743	      0.00000000	     14.22082302	     13.45387788	      6.96622761	      7.90863763	      4.37045387	      0.00000000	     11.78239932	      1.10180866	     19.31167921	      3.96430347	     15.45370145	     10.75533645	      0.00000000	      0.00000000	     11.10041175	      8.33888682	      0.00000000	      4.13239558	      8.10685395	     14.91382176	     11.47148009	     40.81218445	     33.62459944	      0.00000000	      5.72440938	      0.00000000	     28.03528565	      0.00000000	      0.00000000	      0.00000000	      0.00000000	      0.00000000	     22.48841664	     59.79196026	     10.26283705	      8.49390998	      0.00000000	      9.93803899	     21.77168035	      5.05759499	      6.25451294	      1.82597776	     65.65170246	     65.65170246	     25.35612207	     25.35612207	     41.84209769	     41.84209769	    152.58248742	    496.34410577	    -45.21722604	      6.11607310	      3.70025683	     61.19032224	   -152.58248742	   -496.34410577	     45.21722604	     13.59609718	     -4.32063785	     -1.48277835	     51.08804359	    773.46702758	     70.93457511	     -9.65665015	     -1.30777084	     20.62570608	    -51.08804359	   -773.46702758	    -70.93457511	    -13.82279885	      0.88796152	      0.86209132	      0.00000000	      0.00000000	      0.00000000	      0.00000000	      0.00000000	      0.00000000	      0.00000000	      0.00000000	      0.00000000	      0.00000000	      0.00000000	      0.00000000	      0.00000000	      0.00000000	      0.00000000	      0.00000000	      0.00000000	      0.00000000	      0.00000000	      0.00000000	      0.00000000	      0.00000000	      0.00000000	      0.00000000	      3.82523138	      1.89869558	      0.00000000	     20.21049236	      0.00000000	    -16.88099445	    -32.08617882	     -4.53857991	      0.00000000	      0.00000000	      0.00000000	      0.00000000	      0.00000001	      0.00000000
      0.06945137	      0.00000000	     14.27205364	     13.94621028	      6.88774023	      7.82256401	      4.97399069	      0.00000000	    239.81177106	    288.01007088	    425.38257961	    137.93769146	     15.27238033	     10.63512115	      0.00000000	      0.00000000	     11.02706243	      8.93015724	      0.00000000	    122.29712079	      8.41563482	     14.78901728	     11.34415564	     40.47193761	     33.23814110	      0.00000000	      5.68297001	      0.00000000	     47.15765119	      0.00000000	      0.00000000	      0.00000000	     55.93841421	     51.90487752	      0.00000000	     33.96913191	      7.61346231	      6.08586907	      0.00000000	      7.61866797	     25.84622986	      4.71397077	     12.64296025	      3.84716968	      0.00000000	     14.27205364	     13.94621028	      6.88774023	      7.82256401	      4.97399069	      0.00000000	     11.64023335	      3.19593926	     19.08982177	      3.91981020	     15.27238033	     10.63512115	      0.00000000	      0.00000000	     11.02706243	      8.29552681	      0.00000000	      4.08532901	      8.41563482	     14.78901728	     11.34415564	     40.47193761	     33.23814110	      0.00000000	      5.68297001	      0.00000000	     27.98844421	      0.00000000	      0.00000000	      0.00000000	      0.00000000	      0.00000000	     26.08740140	     59.82439299	     10.47472137	      8.77689357	      2.42155422	     10.00805560	     21.87789629	      5.01445434	      6.32521774	      1.85485527	     64.91046804	     64.91046804	     25.05895429	     25.05895429	     41.55852492	     41.55852492	    145.61033883	    495.83659465	    -47.36306868	      6.99405993	      3.51183423	     58.21192111	   -145.61033883	   -495.83659465	     47.36306868	     13.53330507	     -4.08663797	     -1.12128232	     52.92943842	    747.33805575	     71.69090530	    -10.59740143	     -1.29868295	     21.30457024	    -52.92943842	   -747.33805575	    -71.69090530	    -13.29638113	      0.85899229	      0.91975581	      0.00000000	      0.00000000	      0.00000000	      0.00000000	      0.00000000	      0.00000000	      0.00000000	      0.00000000	      0.00000000	      0.00000000	      0.00000000	      0.00000000	      0.00000000	      0.00000000	      0.00000000	      0.00000000	      0.00000000	      0.00000000	      0.00000000	      0.00000000	      0.00000000	      0.00000000	      0.00000000	      0.00000000	      2.05906344	     -0.34663121	      0.00000000	     21.86494289	      0.00000000	    -18.09513419	    -34.45977702	     -6.55502517	      0.00000000	      0.00000000	      0.00000000	      0.00000000	      0.00000001	      0.00000000
      0.07080662	      0.00000000	     14.26875796	     14.27091947	      6.81073677	      7.73792094	      5.45718689	      0.00000000	    238.32862702	    283.39049105	    421.54973478	    137.76585010	     15.09454570	     10.51718402	      0.00000000	      0.00000000	     10.95018228	      8.86781177	      0.00000000	    121.91365780	      8.61365740	     14.65883087	     11.21807275	     40.13839523	     32.85932694	      0.00000000	      5.64097899	      0.00000000	     46.80555182	      0.00000000	      0.00000000	      0.00000000	     53.22169330	     48.11783242	      0.00000000	     32.16156176	      8.32702551	      6.62934474	      0.00000000	      6.45588835	     23.16045058	      7.47690990	     13.89769227	      4.25721931	      0.00000000	     14.26875796	     14.27091947	      6.81073677	      7.73792094	      5.45718689	      0.00000000	     11.50082970	      4.85738859	     18.87220798	      3.87616142	     15.09454570	     10.51718402	      0.00000000	      0.00000000	     10.95018228	      8.25085894	      0.00000000	      4.03915998	      8.61365740	     14.65883087	     11.21807275	     40.13839523	     32.85932694	      0.00000000	      5.64097899	      0.00000000	     27.92973729	      0.00000000	      0.00000000	      0.00000000	      0.00000000	      0.00000000	     29.32122996	     59.84339073	     10.65509136	      9.03334801	      4.86687077	     10.06572492	     21.97191708	      4.97051759	      6.41141301	      1.88974396	     64.18333153	     64.18333153	     24.76686242	     24.76686242	     41.28060548	     41.28060548	    148.21756632	    508.59351441	    -45.32374289	      5.77298194	      3.60027123	     59.18161054	   -148.21756632	   -508.59351441	     45.32374289	     14.02839871	     -4.18601742	     -1.00005786	     43.02351125	    730.77431102	     69.88842190	    -10.18869019	     -1.04649953	     17.07706807	    -43.02351125	   -730.77431102	    -69.88842190	    -13.09369330	      0.64994093	      1.40216920	      0.00000000	      0.00000000	      0.00000000	      0.00000000	      0.00000000	      0.00000000	      0.00000000	      0.00000000	      0.00000000	      0.00000000	      0.00000000	      0.00000000	      0.00000000	      0.00000000	      0.00000000	      0.00000000	      0.00000000	      0.00000000	      0.00000000	      0.00000000	      0.00000000	      0.00000000	      0.00000000	      0.00000000	      1.52378570	     -1.43235533	      0.00000000	     23.86844675	      0.00000000	    -17.75566434	    -35.20074200	     -7.32454907	      0.00000000	      0.00000000	      0.00000000	      0.00000000	      0.00000001	      0.00000000
      0.07212362	      0.00000000	     14.24101924	     14.46791204	      6.73730320	      7.65706065	      5.83529430	      0.00000000	    237.08489977	    279.38252975	    418.91949181	    137.78552775	     14.92500246	     10.40471503	      0.00000000	      0.00000000	     10.87247231	      8.80858970	      0.00000000	    121.69781448	      8.72984137	     14.52838908	     11.09688414	     39.82055442	     32.49836401	      0.00000000	      5.59978420	      0.00000000	     46.37430104	      0.00000000	      0.00000000	      0.00000000	     49.87706274	     44.17618541	      0.00000000	     30.36569587	      9.01107317	      7.13153764	      1.25927354	      5.45939365	     20.66024543	      3.58481171	     15.28736513	      4.71623544	      0.00000000	     14.24101924	     14.46791204	      6.73730320	      7.65706065	      5.83529430	      0.00000000	     11.36794931	      6.20274662	     18.66472101	      3.83453763	     14.92500246	     10.40471503	      0.00000000	      0.00000000	     10.87247231	      8.20630222	      0.00000000	      3.99513688	      8.72984137	     14.52838908	     11.09688414	     39.82055442	     32.49836401	      0.00000000	      5.59978420	      0.00000000	     27.86165106	      0.00000000	      0.00000000	      0.00000000	      0.00000000	      0.00000000	     32.16341695	     59.84962314	     10.79835217	      9.25501181	      6.75418403	     10.11082954	     22.05217827	      4.92724411	      6.50945865	      1.92912058	     63.48995685	     63.48995685	     24.48786460	     24.48786460	     41.01582969	     41.01582969	    155.33517845	    508.79648764	    -43.60191454	      5.02945045	      3.79883759	     62.11322613	   -155.33517845	   -508.79648764	     43.60191454	     14.10704778	     -4.41646965	     -1.14520736	     38.99848943	    715.16282391	     72.01792207	    -11.44587263	     -0.94848185	     15.29322696	    -38.99848943	   -715.16282391	    -72.01792207	    -12.72846561	      0.55616696	      1.69326284	      0.00000000	      0.00000000	      0.00000000	      0.00000000	      0.00000000	      0.00000000	      0.00000000	      0.00000000	      0.00000000	      0.00000000	      0.00000000	      0.00000000	      0.00000000	      0.00000000	      0.00000000	      0.00000000	      0.00000000	      0.00000000	      0.00000000	      0.00000000	      0.00000000	      0.00000000	      0.00000000	      0.00000000	      2.02669748	     -1.48887444	      0.00000000	     27.62085604	      0.00000000	    -15.37052932	    -33.79740482	     -5.49478320	      0.00000000	      0.00000000	      0.00000000	      0.00000000	      0.00000001	      0.00000000
